<?xml version="1.0" encoding="UTF-8"?><svg id="a" xmlns="http://www.w3.org/2000/svg" viewBox="0 0 370.27 100.19"><g id="b"><path id="c" d="m44.64,52.58h-22.46c-12.24,0-22.19,9.95-22.19,22.19v22.46c0,1.65,1.32,2.97,2.96,2.97h22.46c12.26,0,22.18-9.93,22.18-22.19v-22.46c0-1.64-1.31-2.96-2.96-2.96Zm-2.01,25.42c0,9.5-7.71,17.21-17.21,17.21H4.98v-20.45c0-9.48,7.74-17.21,17.21-17.21h20.45v20.45Z" style="fill:#17e18c;"/><path id="d" d="m42.63,8.19c-.96-1.18-2.03-2.25-3.21-3.21C35.6,1.86,30.73,0,25.42,0H2.96C1.31,0,0,1.32,0,2.97v22.45c0,5.31,1.87,10.17,4.98,13.99.96,1.18,2.04,2.26,3.23,3.22,3.81,3.11,8.69,4.98,13.98,4.98h3.24c5.28,0,10.16-1.86,13.97-4.97,1.19-.97,2.28-2.04,3.24-3.23,3.1-3.82,4.98-8.69,4.98-13.99v-3.23c0-5.31-1.86-10.18-4.98-14Zm0,17.23c0,9.48-7.74,17.21-17.21,17.21h-3.53c-9.34-.15-16.92-7.82-16.92-17.21V4.98h20.45c9.49,0,17.21,7.71,17.21,17.21v3.23Z" style="fill:#17e18c;"/></g><rect x="79.16" y="27.69" width="8.46" height="44.8" style="fill:#fff;"/><path d="m127.6,46.9c-.39-1.48-1.05-2.91-1.98-4.28-.92-1.37-2.21-2.5-3.87-3.39-1.66-.89-3.81-1.34-6.44-1.34-3.3,0-6.03.72-8.2,2.15-1.02.67-1.91,1.46-2.69,2.33v-3.48h-7.53v33.6h8.59v-17.05c0-2.09.23-3.77.7-5.04.47-1.27,1.06-2.22,1.79-2.88.73-.65,1.5-1.09,2.33-1.32.83-.23,1.61-.34,2.33-.34,1.8,0,3.2.4,4.18,1.21s1.7,1.82,2.13,3.02c.44,1.2.7,2.4.78,3.59.08,1.19.12,2.17.12,2.94v15.87h8.59v-18.85c0-.56-.04-1.45-.12-2.68-.08-1.22-.32-2.58-.72-4.06Z" style="fill:#fff;"/><polygon points="149.85 62.17 141.88 38.89 133.42 38.89 145.61 72.49 154.08 72.49 166.27 38.89 157.81 38.89 149.85 62.17" style="fill:#fff;"/><path d="m194.74,40.45c-2.47-1.66-5.47-2.49-8.99-2.49-3.32,0-6.25.75-8.81,2.26-2.55,1.5-4.55,3.61-6,6.33-1.45,2.72-2.18,5.91-2.18,9.58,0,3.36.74,6.34,2.22,8.95,1.48,2.6,3.54,4.65,6.16,6.13,2.62,1.48,5.66,2.22,9.1,2.22,3.24,0,6.22-.85,8.95-2.55,2.73-1.7,4.72-4.09,5.99-7.16l-8.46-2.43c-.62,1.37-1.52,2.42-2.71,3.14-1.18.73-2.6,1.09-4.26,1.09-2.63,0-4.63-.86-5.99-2.57-.99-1.25-1.62-2.89-1.89-4.9h23.59c.35-4.07-.06-7.6-1.24-10.61-1.18-3.01-3.01-5.34-5.48-7Zm-8.62,4.85c2.47,0,4.25.75,5.34,2.26.72.99,1.19,2.4,1.44,4.22h-14.79c.33-1.55.88-2.84,1.66-3.84,1.36-1.75,3.48-2.63,6.36-2.63Z" style="fill:#fff;"/><path d="m238.17,46.9c-.39-1.48-1.05-2.91-1.98-4.28-.92-1.37-2.21-2.5-3.87-3.39-1.66-.89-3.81-1.34-6.44-1.34-3.3,0-6.03.72-8.2,2.15-1.02.67-1.91,1.46-2.69,2.33v-3.48h-7.53v33.6h8.59v-17.05c0-2.09.23-3.77.7-5.04.47-1.27,1.06-2.22,1.79-2.88s1.5-1.09,2.33-1.32c.83-.23,1.61-.34,2.33-.34,1.8,0,3.2.4,4.18,1.21.99.81,1.7,1.82,2.13,3.02.44,1.2.7,2.4.78,3.59.08,1.19.12,2.17.12,2.94v15.87h8.59v-18.85c0-.56-.04-1.45-.12-2.68-.08-1.22-.32-2.58-.72-4.06Z" style="fill:#fff;"/><path d="m257.56,29.56h-8.46v9.33h-5.73v6.53h5.73v12.82c0,2.01.02,3.81.06,5.4.04,1.59.48,3.15,1.31,4.68.91,1.64,2.25,2.83,4,3.56,1.75.74,3.74,1.13,5.97,1.18,2.23.05,4.51-.14,6.83-.58v-7.03c-1.99.27-3.81.35-5.44.25-1.64-.1-2.83-.75-3.58-1.93-.39-.62-.61-1.46-.64-2.5-.03-1.05-.05-2.22-.05-3.53v-12.32h9.71v-6.53h-9.71v-9.33Z" style="fill:#fff;"/><path d="m297.07,55.94c0,2.07-.23,3.75-.7,5.02-.47,1.28-1.06,2.24-1.79,2.89-.73.65-1.5,1.09-2.33,1.32-.83.23-1.61.34-2.33.34-1.8,0-3.2-.4-4.18-1.21-.99-.81-1.7-1.81-2.13-3.02-.44-1.2-.7-2.4-.78-3.59-.08-1.19-.12-2.17-.12-2.94v-15.87h-8.59v18.85c0,.56.04,1.45.12,2.68.08,1.22.32,2.58.72,4.06.39,1.48,1.05,2.91,1.98,4.28.92,1.37,2.21,2.5,3.87,3.39,1.66.89,3.81,1.34,6.44,1.34,3.3,0,6.03-.72,8.2-2.15,1.02-.67,1.91-1.46,2.69-2.33v3.48h7.47v-33.6h-8.52v17.05Z" style="fill:#fff;"/><path d="m330.98,38.82c-1.02.07-2,.25-2.96.53-.95.28-1.84.67-2.64,1.17-1.06.62-1.95,1.41-2.68,2.36-.35.45-.65.94-.93,1.44v-5.42h-7.47v33.6h8.52v-17.17c0-1.29.18-2.44.53-3.47.35-1.03.87-1.92,1.56-2.68s1.52-1.36,2.52-1.82c1-.48,2.11-.76,3.34-.86,1.23-.09,2.32,0,3.25.3v-7.9c-1.02-.12-2.03-.15-3.05-.08Z" style="fill:#fff;"/><path d="m366.08,58.06h4.08c.35-4.07-.06-7.6-1.24-10.61-1.18-3.01-3.01-5.34-5.48-7-2.47-1.66-5.47-2.49-8.99-2.49-3.32,0-6.25.75-8.81,2.26-2.55,1.5-4.55,3.61-6,6.33-1.45,2.72-2.18,5.91-2.18,9.58,0,3.36.74,6.34,2.22,8.95,1.48,2.6,3.54,4.65,6.16,6.13,2.62,1.48,5.66,2.22,9.1,2.22,3.24,0,6.22-.85,8.95-2.55,2.73-1.7,4.72-4.09,5.99-7.16l-8.46-2.43c-.62,1.37-1.52,2.42-2.71,3.14-1.18.73-2.6,1.09-4.26,1.09-2.63,0-4.63-.86-5.99-2.57-.99-1.25-1.62-2.89-1.89-4.9h19.51Zm-11.26-12.76c2.47,0,4.25.75,5.34,2.26.72.99,1.19,2.4,1.44,4.22h-14.79c.33-1.55.88-2.84,1.66-3.84,1.36-1.75,3.48-2.63,6.36-2.63Z" style="fill:#fff;"/></svg>